<?xml version="1.0" encoding="utf-8"?>
<!-- Generator: Adobe Illustrator 16.0.0, SVG Export Plug-In . SVG Version: 6.00 Build 0)  -->
<!DOCTYPE svg PUBLIC "-//W3C//DTD SVG 1.1//EN" "http://www.w3.org/Graphics/SVG/1.1/DTD/svg11.dtd">
<svg version="1.1" id="Layer_1" xmlns="http://www.w3.org/2000/svg" xmlns:xlink="http://www.w3.org/1999/xlink" x="0px" y="0px"
	 width="50px" height="50px" viewBox="0 0 50 50" enable-background="new 0 0 50 50" xml:space="preserve">
<path fill="#EC008C" d="M40.168,22.307c0.004-0.109,0.008-0.218,0.008-0.33c0-5.58-4.541-10.119-10.121-10.119
	c-3.377,0-6.535,1.707-8.406,4.492c-1.271-0.855-2.784-1.32-4.32-1.32c-4.123,0-7.501,3.243-7.715,7.377
	C6.797,23.74,5,26.64,5,29.909c0,4.541,3.518,8.232,7.84,8.232h24.323c4.323,0,7.837-3.691,7.837-8.232
	C45,26.566,43.079,23.571,40.168,22.307z M37.163,36.852H12.84c-3.611,0-6.551-3.115-6.551-6.942c0-2.849,1.686-5.453,4.197-6.48
	c0.245-0.099,0.4-0.407,0.4-0.667c0-3.554,2.889-6.443,6.441-6.443c1.484,0,2.936,0.521,4.088,1.466
	c0.15,0.119,0.342,0.172,0.528,0.133c0.186-0.032,0.348-0.147,0.443-0.313c1.573-2.75,4.508-4.456,7.667-4.456
	c4.872,0,8.831,3.958,8.831,8.829c0,0.238-0.012,0.471-0.028,0.704c-0.024,0.289,0.149,0.558,0.421,0.657
	c2.652,0.958,4.436,3.599,4.436,6.571C43.714,33.736,40.774,36.852,37.163,36.852z"/>
</svg>
