<?xml version="1.0" encoding="utf-8"?>
<!-- Generator: Adobe Illustrator 16.0.0, SVG Export Plug-In . SVG Version: 6.00 Build 0)  -->
<!DOCTYPE svg PUBLIC "-//W3C//DTD SVG 1.1//EN" "http://www.w3.org/Graphics/SVG/1.1/DTD/svg11.dtd">
<svg version="1.1" id="Layer_1" xmlns="http://www.w3.org/2000/svg" xmlns:xlink="http://www.w3.org/1999/xlink" x="0px" y="0px"
	 width="50px" height="50px" viewBox="0 0 50 50" enable-background="new 0 0 50 50" xml:space="preserve">
<path display="none" fill="#EC008C" d="M33.01,23.533h-1.162c-0.131,0-0.293-0.12-0.342-0.277l-0.684-1.658
	c-0.061-0.112-0.033-0.312,0.059-0.403l0.82-0.82c0.15-0.15,0.234-0.352,0.234-0.565c0-0.215-0.084-0.415-0.234-0.565l-0.945-0.948
	c-0.301-0.297-0.826-0.299-1.129,0.002l-0.82,0.822c-0.09,0.088-0.244,0.144-0.438,0.043l-1.658-0.68
	c-0.125-0.037-0.242-0.197-0.242-0.331v-1.162c0-0.441-0.359-0.801-0.803-0.801h-1.334c-0.44,0-0.799,0.359-0.799,0.801v1.162
	c0,0.13-0.122,0.294-0.277,0.342l-1.657,0.685c-0.107,0.06-0.316,0.029-0.403-0.058l-0.823-0.823
	c-0.301-0.299-0.827-0.3-1.129,0.001l-0.946,0.944c-0.15,0.151-0.234,0.352-0.234,0.566c0,0.214,0.084,0.415,0.234,0.565
	l0.822,0.821c0.091,0.091,0.12,0.29,0.043,0.435l-0.679,1.656c-0.038,0.124-0.2,0.247-0.33,0.247H16.99c-0.441,0-0.8,0.359-0.8,0.8
	v1.335c0,0.441,0.358,0.801,0.8,0.801h1.163c0.13,0,0.292,0.122,0.341,0.275l0.684,1.657c0.062,0.115,0.034,0.312-0.059,0.404
	l-0.821,0.82c-0.151,0.15-0.235,0.353-0.235,0.567s0.084,0.416,0.234,0.564l0.946,0.948c0.304,0.297,0.828,0.297,1.13-0.004
	l0.822-0.822c0.087-0.087,0.241-0.142,0.436-0.041l1.655,0.679c0.125,0.037,0.247,0.201,0.247,0.331v1.162
	c0,0.441,0.358,0.801,0.799,0.801h1.334c0.444,0,0.803-0.359,0.803-0.801v-1.162c0-0.133,0.117-0.294,0.273-0.342l1.658-0.683
	c0.107-0.061,0.318-0.03,0.404,0.056l0.822,0.824c0.301,0.301,0.83,0.301,1.131,0l0.941-0.944c0.152-0.15,0.236-0.352,0.236-0.566
	s-0.084-0.417-0.234-0.567l-0.822-0.819c-0.09-0.091-0.117-0.292-0.041-0.437l0.68-1.656c0.037-0.126,0.199-0.245,0.33-0.245h1.162
	c0.441,0,0.801-0.359,0.801-0.801v-1.335C33.811,23.893,33.451,23.533,33.01,23.533z M33.188,25.668
	c0,0.097-0.082,0.178-0.178,0.178h-1.162c-0.404,0-0.812,0.304-0.916,0.662l-0.654,1.594c-0.193,0.354-0.123,0.856,0.16,1.145
	l0.824,0.821c0.045,0.044,0.051,0.098,0.051,0.126c0,0.027-0.006,0.08-0.051,0.125l-0.943,0.945
	c-0.09,0.089-0.164,0.089-0.252,0.001l-0.822-0.825c-0.172-0.173-0.424-0.272-0.693-0.272c-0.162,0-0.318,0.039-0.418,0.097
	l-1.598,0.657c-0.387,0.114-0.689,0.521-0.689,0.928v1.162c0,0.097-0.082,0.179-0.181,0.179h-1.334c-0.097,0-0.176-0.08-0.176-0.179
	v-1.162c0-0.405-0.305-0.812-0.663-0.917l-1.595-0.653c-0.132-0.072-0.288-0.111-0.45-0.111c-0.268,0-0.52,0.1-0.693,0.273
	l-0.821,0.821c-0.066,0.066-0.188,0.063-0.252,0.003l-0.945-0.947c-0.045-0.044-0.051-0.097-0.051-0.124
	c0-0.028,0.006-0.082,0.053-0.127l0.82-0.82c0.286-0.286,0.358-0.788,0.179-1.112l-0.657-1.598c-0.115-0.387-0.523-0.69-0.927-0.69
	H16.99c-0.097,0-0.178-0.081-0.178-0.178v-1.335c0-0.096,0.081-0.178,0.178-0.178h1.163c0.403,0,0.812-0.304,0.915-0.662
	l0.654-1.595c0.195-0.356,0.123-0.858-0.164-1.144l-0.822-0.822c-0.033-0.033-0.051-0.077-0.051-0.124
	c0-0.048,0.018-0.092,0.053-0.125l0.944-0.945c0.067-0.066,0.186-0.064,0.251,0l0.821,0.822c0.175,0.174,0.427,0.273,0.694,0.273
	c0.163,0,0.318-0.038,0.418-0.096l1.596-0.659c0.389-0.115,0.693-0.522,0.693-0.928v-1.162c0-0.098,0.079-0.179,0.176-0.179h1.334
	c0.099,0,0.181,0.082,0.181,0.179v1.162c0,0.406,0.302,0.813,0.66,0.917l1.594,0.654c0.348,0.191,0.865,0.118,1.146-0.163
	l0.818-0.822c0.068-0.065,0.189-0.063,0.252-0.002l0.945,0.948c0.033,0.033,0.051,0.077,0.051,0.125
	c0,0.047-0.018,0.091-0.051,0.125l-0.82,0.82c-0.287,0.287-0.359,0.789-0.18,1.112l0.658,1.597c0.115,0.389,0.523,0.692,0.928,0.692
	h1.162c0.096,0,0.178,0.082,0.178,0.178V25.668z M25,22.563c-1.343,0-2.436,1.094-2.436,2.437c0,1.344,1.093,2.437,2.436,2.437
	c1.344,0,2.436-1.093,2.436-2.437C27.436,23.657,26.344,22.563,25,22.563z M25,26.813c-1,0-1.813-0.812-1.813-1.813
	c0-1,0.813-1.813,1.813-1.813S26.812,24,26.812,25C26.812,26.001,26,26.813,25,26.813z"/>
<path display="none" fill="#EC008C" d="M24.363,24.314c0,0.172-0.14,0.312-0.312,0.312h-5.669c-0.172,0-0.311-0.14-0.311-0.312
	s0.139-0.312,0.311-0.312h5.669C24.224,24.003,24.363,24.143,24.363,24.314z M18.382,26.809h5.669c0.173,0,0.312-0.14,0.312-0.311
	c0-0.173-0.14-0.312-0.312-0.312h-5.669c-0.172,0-0.311,0.139-0.311,0.312C18.071,26.669,18.21,26.809,18.382,26.809z
	 M18.382,28.991h5.669c0.173,0,0.312-0.14,0.312-0.312s-0.14-0.312-0.312-0.312h-5.669c-0.172,0-0.311,0.14-0.311,0.312
	S18.21,28.991,18.382,28.991z M18.382,31.174h9.066c0.172,0,0.312-0.14,0.312-0.311c0-0.172-0.14-0.312-0.312-0.312h-9.066
	c-0.172,0-0.311,0.14-0.311,0.312C18.071,31.034,18.21,31.174,18.382,31.174z M33.023,21.382l-0.569,0.811l-3.672,5.297
	c-0.037,0.056-0.092,0.096-0.153,0.118l-3.559,1.225c-0.033,0.011-0.067,0.017-0.102,0.017c-0.066,0-0.132-0.021-0.188-0.062
	c-0.082-0.062-0.129-0.163-0.123-0.266l0.195-3.585c0.003-0.056,0.021-0.108,0.051-0.154c0,0,0.032-0.05,0.086-0.126l3.724-5.435
	c0.134-0.183,0.256-0.34,0.332-0.438c0.032-0.042,0.055-0.069,0.064-0.084c0.229-0.336,0.539-0.507,0.921-0.507
	c0.442,0,0.977,0.229,1.729,0.743C32.771,19.63,33.701,20.39,33.023,21.382z M29.538,19.165c-0.003,0.004-0.009,0.011-0.013,0.015
	c0.484,0.128,1.039,0.392,1.576,0.761c0.558,0.382,1.017,0.818,1.309,1.23l0.099-0.141c0.218-0.318,0.275-0.637-1.101-1.581
	c-0.624-0.427-1.076-0.634-1.377-0.634c-0.173,0-0.294,0.07-0.407,0.235C29.616,19.062,29.585,19.104,29.538,19.165z M27.967,27.177
	c-0.318-0.274-0.642-0.324-0.646-0.325c-0.115-0.013-0.213-0.088-0.255-0.195c-0.186-0.475-0.764-0.597-0.77-0.598
	c-0.108-0.02-0.197-0.096-0.234-0.2c-0.091-0.253-0.367-0.448-0.605-0.559l-0.098,1.794l0.926,0.662L27.967,27.177z M25.306,28.093
	l0.257-0.089l-0.243-0.174L25.306,28.093z M32.027,21.725c-0.215-0.39-0.696-0.871-1.278-1.271c-0.572-0.392-1.19-0.663-1.634-0.725
	l-0.089,0.123l-3.331,4.875c0.267,0.12,0.67,0.355,0.884,0.765c0.254,0.083,0.731,0.295,0.993,0.78
	c0.215,0.059,0.585,0.205,0.921,0.544L32.027,21.725z M16.769,21.725c-0.049-0.115-0.021-0.249,0.066-0.339l4.469-4.535
	c0.089-0.089,0.224-0.116,0.34-0.069c0.117,0.049,0.193,0.162,0.193,0.288v3.22c0,0.896-0.73,1.627-1.627,1.627h-3.154
	C16.931,21.916,16.817,21.841,16.769,21.725z M17.8,21.294h2.41c0.554,0,1.004-0.451,1.004-1.005v-2.46L17.8,21.294z M22.294,17.381
	h5.149c0.6,0,1.085,0.472,1.104,1.074c0.005,0.168,0.144,0.301,0.311,0.301c0.003,0,0.007,0,0.011,0
	c0.171-0.005,0.307-0.148,0.301-0.32c-0.029-0.94-0.787-1.678-1.726-1.678h-5.149c-0.171,0-0.311,0.14-0.311,0.312
	S22.123,17.381,22.294,17.381z M28.858,27.531c-0.171,0-0.311,0.139-0.311,0.311v3.672c0,0.609-0.496,1.106-1.104,1.106h-8.97
	c-0.609,0-1.106-0.497-1.106-1.106v-9.138c0-0.172-0.14-0.312-0.312-0.312c-0.171,0-0.311,0.14-0.311,0.312v9.138
	c0,0.953,0.775,1.729,1.729,1.729h8.97c0.952,0,1.727-0.775,1.727-1.729v-3.672C29.17,27.67,29.03,27.531,28.858,27.531z"/>
<path display="none" fill="#EC008C" d="M32.326,23.699c0.002-0.053,0.004-0.105,0.004-0.159c0-2.695-2.193-4.888-4.889-4.888
	c-1.631,0-3.157,0.824-4.06,2.17c-0.614-0.413-1.345-0.638-2.087-0.638c-1.991,0-3.623,1.566-3.727,3.563
	c-1.36,0.644-2.229,2.044-2.229,3.623c0,2.193,1.699,3.977,3.787,3.977h11.749c2.088,0,3.785-1.783,3.785-3.977
	C34.66,25.757,33.732,24.31,32.326,23.699z M30.875,30.725H19.126c-1.744,0-3.164-1.505-3.164-3.354c0-1.376,0.814-2.634,2.027-3.13
	c0.118-0.048,0.193-0.196,0.193-0.322c0-1.717,1.396-3.112,3.111-3.112c0.717,0,1.418,0.252,1.975,0.708
	c0.072,0.058,0.165,0.083,0.255,0.064c0.09-0.016,0.168-0.071,0.214-0.151c0.76-1.328,2.178-2.152,3.704-2.152
	c2.354,0,4.266,1.912,4.266,4.265c0,0.115-0.006,0.228-0.014,0.34c-0.012,0.14,0.072,0.27,0.203,0.317
	c1.281,0.463,2.143,1.738,2.143,3.174C34.039,29.22,32.619,30.725,30.875,30.725z"/>
<path fill="#EC008C" d="M34.833,22.841L23.811,37.935c-0.255,0.311-0.579,0.485-0.943,0.515c-0.032,0.004-0.069,0.004-0.101,0.004
	c-0.326,0-0.635-0.121-0.882-0.346l-6.595-5.995c-0.26-0.238-0.283-0.643-0.042-0.91c0.241-0.264,0.65-0.284,0.912-0.041
	l6.591,5.992l11.044-15.072c0.005-0.006,0.005-0.012,0.009-0.016c0.185-0.301,0.586-0.398,0.888-0.21
	c0.28,0.172,0.381,0.521,0.247,0.812C34.916,22.73,34.875,22.791,34.833,22.841z M40.166,21.996
	c0.005-0.109,0.005-0.218,0.005-0.329c0-5.581-4.535-10.119-10.117-10.119c-3.379,0-6.535,1.705-8.407,4.492
	c-1.27-0.855-2.781-1.32-4.32-1.32c-4.122,0-7.503,3.243-7.717,7.375C6.795,23.428,5,26.326,5,29.597
	c0,4.541,3.519,8.233,7.841,8.233h5.169c0.354,0,0.645-0.288,0.645-0.644s-0.291-0.647-0.645-0.647h-5.169
	c-3.615,0-6.551-3.112-6.551-6.942c0-2.85,1.687-5.454,4.197-6.479c0.243-0.099,0.399-0.406,0.399-0.669
	c0-3.553,2.889-6.441,6.441-6.441c1.491,0,2.94,0.521,4.09,1.466c0.145,0.121,0.337,0.169,0.525,0.134
	c0.186-0.034,0.348-0.149,0.441-0.312c1.573-2.75,4.512-4.46,7.67-4.46c4.87,0,8.832,3.963,8.832,8.831
	c0,0.238-0.013,0.471-0.033,0.703c-0.024,0.289,0.15,0.558,0.426,0.657c2.652,0.959,4.435,3.599,4.435,6.57
	c0,3.83-2.94,6.942-6.55,6.942H27.062c-0.358,0-0.646,0.292-0.646,0.647s0.288,0.644,0.646,0.644h10.102
	c4.323,0,7.837-3.692,7.837-8.233C45,26.256,43.079,23.262,40.166,21.996z"/>
</svg>
