<?xml version="1.0" encoding="utf-8"?>
<!-- Generator: Adobe Illustrator 16.0.0, SVG Export Plug-In . SVG Version: 6.00 Build 0)  -->
<!DOCTYPE svg PUBLIC "-//W3C//DTD SVG 1.1//EN" "http://www.w3.org/Graphics/SVG/1.1/DTD/svg11.dtd">
<svg version="1.1" id="Layer_1" xmlns="http://www.w3.org/2000/svg" xmlns:xlink="http://www.w3.org/1999/xlink" x="0px" y="0px"
	 width="50px" height="50px" viewBox="0 0 50 50" enable-background="new 0 0 50 50" xml:space="preserve">
<path fill="#EC008C" d="M42.273,21.837h-2.506c-0.282,0-0.632-0.259-0.737-0.598l-1.475-3.576c-0.131-0.242-0.071-0.674,0.127-0.87
	l1.769-1.769c0.324-0.325,0.506-0.758,0.506-1.22c0-0.463-0.182-0.895-0.506-1.219l-2.038-2.045
	c-0.649-0.64-1.782-0.645-2.435,0.004l-1.77,1.773c-0.193,0.189-0.526,0.31-0.943,0.093l-3.576-1.466
	c-0.27-0.08-0.522-0.425-0.522-0.714V7.724c0-0.952-0.774-1.727-1.732-1.727h-2.876c-0.95,0-1.723,0.775-1.723,1.727v2.506
	c0,0.28-0.263,0.634-0.598,0.737l-3.574,1.476c-0.232,0.128-0.683,0.063-0.87-0.124l-1.775-1.775
	c-0.648-0.645-1.784-0.646-2.435,0.002l-2.041,2.037c-0.324,0.326-0.505,0.758-0.505,1.221c0,0.461,0.181,0.895,0.505,1.22
	l1.773,1.771c0.196,0.196,0.259,0.625,0.092,0.937l-1.463,3.572c-0.082,0.268-0.432,0.533-0.712,0.533H7.725
	C6.773,21.837,6,22.612,6,23.562v2.879c0,0.952,0.773,1.727,1.725,1.727h2.508c0.28,0,0.63,0.264,0.735,0.595l1.474,3.573
	c0.135,0.249,0.074,0.672-0.126,0.872l-1.771,1.77c-0.326,0.324-0.507,0.76-0.507,1.224c0,0.463,0.181,0.896,0.505,1.217
	l2.041,2.045c0.655,0.641,1.786,0.641,2.437-0.008l1.773-1.773c0.188-0.188,0.521-0.306,0.939-0.089l3.57,1.464
	c0.27,0.08,0.533,0.434,0.533,0.714v2.506c0,0.952,0.773,1.728,1.723,1.728h2.876c0.958,0,1.732-0.775,1.732-1.728V39.77
	c0-0.286,0.253-0.634,0.59-0.737l3.576-1.472c0.231-0.131,0.687-0.065,0.872,0.12l1.773,1.777c0.648,0.648,1.79,0.648,2.438,0
	l2.03-2.037c0.328-0.324,0.51-0.758,0.51-1.221c0-0.464-0.182-0.899-0.506-1.224l-1.773-1.768c-0.193-0.195-0.253-0.63-0.088-0.941
	l1.466-3.571c0.08-0.271,0.43-0.529,0.712-0.529h2.506c0.952,0,1.727-0.774,1.727-1.727v-2.879
	C44,22.612,43.226,21.837,42.273,21.837z M42.656,26.44c0,0.209-0.177,0.384-0.383,0.384h-2.506c-0.872,0-1.753,0.654-1.976,1.428
	l-1.411,3.437c-0.417,0.765-0.266,1.848,0.345,2.469l1.778,1.771c0.097,0.095,0.109,0.211,0.109,0.272
	c0,0.059-0.013,0.172-0.109,0.27l-2.035,2.038c-0.193,0.191-0.354,0.191-0.543,0.002l-1.773-1.779
	c-0.37-0.373-0.914-0.588-1.495-0.588c-0.35,0-0.687,0.085-0.901,0.209l-3.445,1.417c-0.834,0.247-1.486,1.125-1.486,2.001v2.506
	c0,0.209-0.177,0.386-0.39,0.386h-2.876c-0.208,0-0.379-0.173-0.379-0.386V39.77c0-0.874-0.657-1.752-1.43-1.978l-3.439-1.409
	c-0.285-0.155-0.622-0.24-0.971-0.24c-0.577,0-1.12,0.215-1.495,0.59l-1.771,1.771c-0.144,0.144-0.407,0.137-0.543,0.006
	l-2.039-2.043c-0.097-0.095-0.109-0.208-0.109-0.267c0-0.062,0.012-0.178,0.113-0.274l1.769-1.769
	c0.617-0.617,0.773-1.7,0.386-2.399l-1.417-3.445c-0.249-0.834-1.129-1.488-1.999-1.488H7.725c-0.208,0-0.383-0.175-0.383-0.384
	v-2.879c0-0.207,0.175-0.383,0.383-0.383h2.508c0.87,0,1.75-0.655,1.973-1.428l1.411-3.439c0.421-0.769,0.266-1.851-0.354-2.466
	l-1.773-1.773c-0.072-0.071-0.109-0.167-0.109-0.268c0-0.103,0.038-0.198,0.113-0.27l2.037-2.039c0.146-0.143,0.4-0.139,0.542,0
	l1.771,1.773c0.377,0.375,0.92,0.59,1.498,0.59c0.352,0,0.687-0.083,0.901-0.207l3.441-1.422c0.838-0.248,1.496-1.126,1.496-2V7.724
	c0-0.21,0.17-0.385,0.379-0.385h2.876c0.213,0,0.39,0.177,0.39,0.385v2.506c0,0.876,0.652,1.754,1.423,1.978l3.438,1.411
	c0.749,0.413,1.865,0.255,2.472-0.352l1.766-1.773c0.147-0.141,0.408-0.137,0.543-0.004l2.039,2.045
	c0.071,0.072,0.109,0.167,0.109,0.27c0,0.101-0.038,0.196-0.109,0.27l-1.77,1.769c-0.619,0.62-0.775,1.702-0.388,2.399l1.42,3.443
	c0.248,0.838,1.129,1.493,2.001,1.493h2.506c0.206,0,0.383,0.177,0.383,0.383V26.44z M24.999,19.746
	c-2.896,0-5.252,2.358-5.252,5.254c0,2.897,2.357,5.255,5.252,5.255c2.899,0,5.253-2.357,5.253-5.255
	C30.252,22.104,27.897,19.746,24.999,19.746z M24.999,28.911c-2.156,0-3.911-1.753-3.911-3.911c0-2.157,1.754-3.911,3.911-3.911
	c2.157,0,3.91,1.754,3.91,3.911C28.908,27.158,27.155,28.911,24.999,28.911z"/>
<path display="none" fill="#EC008C" d="M32.326,23.699c0.002-0.053,0.004-0.105,0.004-0.159c0-2.695-2.193-4.888-4.889-4.888
	c-1.631,0-3.157,0.824-4.06,2.17c-0.614-0.413-1.345-0.638-2.087-0.638c-1.991,0-3.623,1.566-3.727,3.563
	c-1.36,0.644-2.229,2.044-2.229,3.623c0,2.193,1.699,3.977,3.787,3.977h11.749c2.088,0,3.785-1.783,3.785-3.977
	C34.66,25.757,33.732,24.31,32.326,23.699z M30.875,30.725H19.126c-1.744,0-3.164-1.505-3.164-3.354c0-1.376,0.814-2.634,2.027-3.13
	c0.118-0.048,0.193-0.196,0.193-0.322c0-1.717,1.396-3.112,3.111-3.112c0.717,0,1.418,0.252,1.975,0.708
	c0.072,0.058,0.165,0.083,0.255,0.064c0.09-0.016,0.168-0.071,0.214-0.151c0.76-1.328,2.178-2.152,3.704-2.152
	c2.354,0,4.266,1.912,4.266,4.265c0,0.115-0.006,0.228-0.014,0.34c-0.012,0.14,0.072,0.27,0.203,0.317
	c1.281,0.463,2.143,1.738,2.143,3.174C34.039,29.22,32.619,30.725,30.875,30.725z"/>
</svg>
