<?xml version="1.0" encoding="utf-8"?>
<!-- Generator: Adobe Illustrator 16.0.0, SVG Export Plug-In . SVG Version: 6.00 Build 0)  -->
<!DOCTYPE svg PUBLIC "-//W3C//DTD SVG 1.1//EN" "http://www.w3.org/Graphics/SVG/1.1/DTD/svg11.dtd">
<svg version="1.1" xmlns="http://www.w3.org/2000/svg" xmlns:xlink="http://www.w3.org/1999/xlink" x="0px" y="0px"
	 width="49.328px" height="39.904px" viewBox="0 0 49.328 39.904" enable-background="new 0 0 49.328 39.904" xml:space="preserve">
<g id="Layer_3">
</g>
<g id="line">
	<path fill="#848484" d="M30.221,21.29h-2.08c-0.188,0-0.438-0.185-0.514-0.43l-1.229-2.98c-0.092-0.163-0.047-0.463,0.086-0.597
		l1.467-1.469c0.291-0.29,0.451-0.676,0.451-1.087c0-0.411-0.158-0.797-0.449-1.087L26.26,11.94
		c-0.582-0.571-1.588-0.572-2.17,0.004l-1.469,1.474c-0.08,0.08-0.234,0.134-0.385,0.134c-0.084,0-0.162-0.017-0.285-0.08
		l-2.977-1.222c-0.18-0.053-0.361-0.3-0.361-0.491V9.679c0-0.849-0.691-1.539-1.541-1.539h-2.389c-0.846,0-1.535,0.69-1.535,1.539
		v2.081c0,0.186-0.189,0.438-0.43,0.514l-2.982,1.231c-0.15,0.083-0.471,0.038-0.594-0.085l-1.475-1.475
		c-0.58-0.578-1.594-0.574-2.17,0.001l-1.693,1.69c-0.291,0.291-0.453,0.678-0.453,1.089c0.002,0.412,0.162,0.798,0.453,1.086
		l1.471,1.471c0.133,0.132,0.176,0.432,0.053,0.664l-1.219,2.974c-0.053,0.179-0.305,0.368-0.488,0.368H1.535
		C0.689,21.29,0,21.98,0,22.828v2.39c0,0.848,0.689,1.538,1.535,1.538h2.086c0.188,0,0.436,0.185,0.512,0.428l1.229,2.98
		c0.09,0.163,0.047,0.464-0.086,0.596l-1.471,1.469c-0.291,0.291-0.453,0.678-0.453,1.092c0.002,0.413,0.162,0.799,0.453,1.085
		l1.693,1.698c0.582,0.572,1.59,0.57,2.172-0.007l1.473-1.472c0.078-0.078,0.229-0.131,0.375-0.131c0.086,0,0.164,0.017,0.289,0.081
		l2.977,1.219c0.176,0.053,0.365,0.305,0.365,0.49v2.082c0,0.848,0.689,1.539,1.535,1.539h2.389c0.85,0,1.541-0.691,1.541-1.539
		v-2.082c0-0.19,0.182-0.438,0.426-0.513l2.979-1.229c0.158-0.086,0.479-0.04,0.602,0.081l1.471,1.476
		c0.578,0.579,1.59,0.581,2.174,0l1.688-1.691c0.291-0.289,0.451-0.675,0.451-1.087c0-0.413-0.158-0.8-0.449-1.09l-1.471-1.467
		c-0.133-0.134-0.176-0.437-0.053-0.668l1.221-2.974c0.053-0.182,0.301-0.366,0.49-0.366h2.08c0.85,0,1.541-0.69,1.541-1.538v-2.39
		C31.762,21.98,31.07,21.29,30.221,21.29z M30.436,25.218c0,0.115-0.098,0.213-0.215,0.213h-2.08c-0.779,0-1.537,0.564-1.738,1.25
		l-1.166,2.844c-0.369,0.671-0.236,1.624,0.307,2.174l1.473,1.471c0.055,0.053,0.062,0.117,0.062,0.151
		c0,0.033-0.008,0.096-0.062,0.15l-1.688,1.691c-0.107,0.106-0.195,0.108-0.299,0.002l-1.475-1.478
		c-0.33-0.328-0.809-0.517-1.314-0.517c-0.309,0-0.607,0.074-0.793,0.18L18.6,34.522c-0.736,0.217-1.311,0.991-1.311,1.761v2.082
		c0,0.116-0.1,0.214-0.217,0.214h-2.389c-0.113,0-0.211-0.098-0.211-0.214v-2.082c0-0.77-0.578-1.543-1.25-1.739l-2.846-1.164
		c-0.252-0.139-0.549-0.213-0.859-0.213c-0.504,0-0.982,0.189-1.312,0.519l-1.471,1.471c-0.107,0.107-0.199,0.104-0.303,0.005
		l-1.693-1.697c-0.053-0.052-0.061-0.114-0.061-0.146c0-0.033,0.008-0.096,0.062-0.151l1.473-1.472
		c0.553-0.555,0.686-1.489,0.34-2.104l-1.172-2.85c-0.221-0.735-0.994-1.312-1.76-1.312H1.535c-0.113,0-0.209-0.098-0.209-0.213
		v-2.39c0-0.115,0.096-0.213,0.209-0.213h2.086c0.766,0,1.539-0.577,1.736-1.252l1.164-2.842c0.373-0.674,0.236-1.63-0.311-2.174
		l-1.473-1.473c-0.051-0.05-0.061-0.108-0.061-0.147c0-0.033,0.008-0.096,0.062-0.15l1.695-1.692c0.102-0.103,0.191-0.106,0.299,0
		l1.473,1.473c0.33,0.331,0.809,0.52,1.314,0.52c0.309,0,0.605-0.074,0.787-0.18l2.85-1.176c0.738-0.218,1.314-0.992,1.314-1.761
		V9.679c0-0.118,0.094-0.214,0.211-0.214h2.389c0.117,0,0.217,0.098,0.217,0.214v2.081c0,0.77,0.574,1.544,1.246,1.739l2.846,1.167
		c0.664,0.364,1.637,0.225,2.176-0.309l1.469-1.474c0.109-0.105,0.203-0.098,0.301-0.002l1.689,1.696
		c0.055,0.054,0.062,0.117,0.062,0.15c0,0.032-0.008,0.095-0.062,0.149l-1.467,1.469c-0.547,0.544-0.684,1.499-0.344,2.106
		l1.174,2.85c0.225,0.749,0.982,1.314,1.762,1.314h2.08c0.117,0,0.215,0.098,0.215,0.213V25.218z M15.879,19.555
		c-2.461,0-4.463,2.004-4.463,4.468s2.002,4.467,4.463,4.467c2.463,0,4.467-2.004,4.467-4.467S18.342,19.555,15.879,19.555z
		 M15.879,27.165c-1.73,0-3.139-1.41-3.139-3.142c0-1.733,1.408-3.143,3.139-3.143c1.732,0,3.143,1.41,3.143,3.143
		C19.021,25.755,17.611,27.165,15.879,27.165z M48.105,8.382l-1.32,0c-0.029-0.004-0.078-0.042-0.111-0.126L45.883,6.34
		c-0.008-0.024-0.002-0.082,0.014-0.103l0.928-0.932c0.234-0.231,0.363-0.538,0.363-0.867c0-0.329-0.129-0.636-0.357-0.861
		l-1.082-1.09c-0.467-0.45-1.264-0.447-1.719,0.008L43.018,3.45l-2.006-0.817c-0.025-0.012-0.061-0.062-0.064-0.084V1.222
		C40.947,0.548,40.4,0,39.727,0h-1.523c-0.674,0-1.219,0.548-1.219,1.222v1.319c-0.004,0.028-0.045,0.08-0.127,0.113l-1.916,0.793
		l-0.102-0.01L33.9,2.496c-0.461-0.458-1.26-0.458-1.725,0.001l-1.082,1.08c-0.471,0.475-0.471,1.248,0.002,1.725l0.936,0.934
		c0.016,0.021,0.023,0.078-0.014,0.165l-0.785,1.915C31.221,8.34,31.17,8.378,31.15,8.382h-1.328c-0.674,0-1.223,0.548-1.223,1.221
		v1.524c0,0.673,0.549,1.22,1.223,1.22l1.322,0c0.025,0.005,0.076,0.042,0.109,0.125l0.793,1.918c0.008,0.024,0,0.083-0.012,0.1
		l-0.941,0.938c-0.473,0.477-0.473,1.25,0.002,1.724l1.084,1.085c0.461,0.451,1.258,0.452,1.723-0.008l1.008-0.951l2.006,0.816
		c0.025,0.013,0.064,0.064,0.068,0.084v1.327c0,0.673,0.545,1.221,1.219,1.221h1.523c0.674,0,1.221-0.548,1.221-1.221v-1.322
		c0.004-0.027,0.039-0.077,0.123-0.109l1.92-0.792l0.1,0.01l0.938,0.938c0.457,0.46,1.25,0.47,1.73,0.001l1.064-1.073
		c0.236-0.229,0.365-0.537,0.365-0.866c0.002-0.33-0.129-0.638-0.359-0.865l-0.932-0.931c-0.016-0.022-0.023-0.083,0.016-0.168
		l0.783-1.913c0.012-0.026,0.061-0.063,0.084-0.067h1.326c0.674,0,1.223-0.547,1.223-1.22V9.603
		C49.328,8.93,48.779,8.382,48.105,8.382z M48.002,11.022h-1.223c-0.6,0-1.182,0.433-1.33,0.945l-0.732,1.79
		c-0.287,0.527-0.188,1.245,0.238,1.67l0.861,0.863l-0.924,0.931l-0.867-0.866c-0.254-0.255-0.621-0.401-1.006-0.401
		c-0.236,0-0.467,0.057-0.596,0.132l-1.793,0.74c-0.574,0.168-1.008,0.75-1.008,1.353v1.223h-1.314V18.18
		c0-0.601-0.434-1.182-0.947-1.33l-1.789-0.731c-0.514-0.283-1.258-0.176-1.67,0.237l-0.865,0.865l-0.93-0.931l0.863-0.862
		c0.428-0.425,0.529-1.145,0.271-1.605l-0.74-1.79c-0.168-0.577-0.75-1.011-1.352-1.011h-1.225V9.707h1.225
		c0.602,0,1.184-0.435,1.328-0.947l0.73-1.787c0.293-0.529,0.191-1.249-0.236-1.673l-0.865-0.862l0.932-0.93l0.865,0.866
		c0.256,0.254,0.623,0.4,1.008,0.4c0.236,0,0.465-0.057,0.594-0.132l1.793-0.742c0.576-0.171,1.01-0.753,1.01-1.353V1.325h1.314
		v1.223c0,0.603,0.434,1.184,0.943,1.331l1.791,0.732c0.514,0.282,1.252,0.175,1.668-0.238l0.867-0.866l0.924,0.932l-0.854,0.858
		c-0.432,0.423-0.537,1.143-0.277,1.607l0.74,1.793c0.172,0.576,0.754,1.009,1.354,1.009h1.223V11.022z M38.965,7.276
		c-1.703,0-3.088,1.385-3.088,3.088c0,1.702,1.385,3.088,3.088,3.088c1.701,0,3.086-1.386,3.086-3.088
		C42.051,8.662,40.666,7.276,38.965,7.276z M38.965,12.127c-0.973,0-1.764-0.791-1.764-1.763s0.791-1.763,1.764-1.763
		c0.971,0,1.762,0.791,1.762,1.763S39.936,12.127,38.965,12.127z"/>
</g>
</svg>
