<?xml version="1.0" encoding="utf-8"?>
<!-- Generator: Adobe Illustrator 16.0.0, SVG Export Plug-In . SVG Version: 6.00 Build 0)  -->
<!DOCTYPE svg PUBLIC "-//W3C//DTD SVG 1.1//EN" "http://www.w3.org/Graphics/SVG/1.1/DTD/svg11.dtd">
<svg version="1.1" xmlns="http://www.w3.org/2000/svg" xmlns:xlink="http://www.w3.org/1999/xlink" x="0px" y="0px"
	 width="45.496px" height="45.495px" viewBox="0 0 45.496 45.495" enable-background="new 0 0 45.496 45.495" xml:space="preserve">
<g id="Layer_3">
</g>
<g id="line">
	<path fill="#848484" d="M22.746,17.226c3.178,0,5.764-2.585,5.764-5.761c0-3.175-2.586-5.758-5.764-5.758
		c-3.176,0-5.756,2.583-5.756,5.758C16.99,14.641,19.57,17.226,22.746,17.226z M22.746,6.821c2.562,0,4.648,2.083,4.648,4.644
		c0,2.563-2.086,4.647-4.648,4.647c-2.561,0-4.645-2.084-4.645-4.647C18.102,8.904,20.186,6.821,22.746,6.821z M16.49,22.222
		c1.285-2.908-0.031-6.318-2.928-7.601c-0.744-0.333-1.529-0.501-2.34-0.501c-2.271,0-4.338,1.342-5.262,3.42
		c-1.289,2.897,0.02,6.307,2.92,7.603c0.742,0.331,1.529,0.5,2.338,0.5C13.494,25.642,15.562,24.3,16.49,22.222z M6.977,17.992
		c0.748-1.676,2.414-2.759,4.246-2.759c0.652,0,1.285,0.136,1.889,0.405c2.338,1.036,3.396,3.787,2.361,6.132
		c-0.748,1.675-2.418,2.758-4.254,2.758c-0.65,0-1.285-0.137-1.885-0.403C6.994,23.079,5.938,20.329,6.977,17.992z M29.557,26.762
		c-1.113,0-2.193,0.322-3.129,0.931c-2.662,1.728-3.424,5.303-1.695,7.971c1.07,1.64,2.877,2.619,4.836,2.619
		c1.111,0,2.195-0.321,3.133-0.93c1.289-0.838,2.176-2.131,2.494-3.638c0.32-1.505,0.033-3.043-0.805-4.328
		C33.326,27.743,31.52,26.762,29.557,26.762z M34.107,33.484c-0.258,1.216-0.973,2.257-2.014,2.934
		c-0.756,0.492-1.629,0.75-2.525,0.75c-1.58,0-3.039-0.791-3.902-2.113c-1.395-2.151-0.781-5.036,1.369-6.43
		c0.754-0.491,1.625-0.75,2.521-0.75c1.582,0,3.041,0.791,3.9,2.117C34.133,31.03,34.363,32.27,34.107,33.484z M39.959,18.978
		c-0.447-2.817-2.838-4.86-5.684-4.86c-0.301,0-0.605,0.023-0.904,0.071c-3.135,0.497-5.281,3.454-4.789,6.591
		c0.447,2.816,2.838,4.861,5.684,4.861c0.303,0,0.605-0.024,0.906-0.072c1.52-0.242,2.855-1.06,3.76-2.303
		C39.838,22.021,40.201,20.498,39.959,18.978z M38.031,22.612c-0.73,1.002-1.809,1.663-3.033,1.858
		c-0.242,0.038-0.488,0.058-0.732,0.058c-2.295,0-4.223-1.649-4.584-3.922c-0.396-2.53,1.336-4.916,3.865-5.317
		c0.24-0.039,0.486-0.058,0.729-0.058c2.258,0,4.229,1.686,4.584,3.922C39.055,20.379,38.76,21.607,38.031,22.612z M26.062,22.781
		c0-1.831-1.488-3.32-3.316-3.32c-1.832,0-3.32,1.489-3.32,3.32c0,1.828,1.488,3.315,3.32,3.315
		C24.574,26.096,26.062,24.609,26.062,22.781z M22.746,24.982c-1.217,0-2.205-0.988-2.205-2.202c0-1.216,0.988-2.206,2.205-2.206
		c1.215,0,2.205,0.99,2.205,2.206C24.951,23.995,23.961,24.982,22.746,24.982z M15.932,26.761c-1.424,0-2.793,0.525-3.857,1.48
		c-2.357,2.127-2.547,5.777-0.422,8.135c1.09,1.212,2.648,1.906,4.279,1.906c1.422,0,2.791-0.525,3.854-1.479
		c2.357-2.128,2.549-5.779,0.424-8.14C19.121,27.456,17.561,26.761,15.932,26.761z M19.039,35.977
		c-0.857,0.77-1.959,1.193-3.107,1.193c-1.314,0-2.572-0.56-3.451-1.538c-1.715-1.902-1.562-4.847,0.338-6.562
		c0.859-0.77,1.965-1.194,3.113-1.194c1.314,0,2.57,0.56,3.449,1.536C21.096,31.314,20.941,34.261,19.039,35.977z M22.748,0
		C10.205,0,0,10.204,0,22.748c0,12.543,10.205,22.748,22.748,22.748s22.748-10.205,22.748-22.748C45.496,10.204,35.291,0,22.748,0z
		 M22.748,44.17c-11.812,0-21.422-9.61-21.422-21.422S10.936,1.325,22.748,1.325s21.422,9.61,21.422,21.422
		S34.561,44.17,22.748,44.17z"/>
</g>
</svg>
