<?xml version="1.0" encoding="utf-8"?>
<!-- Generator: Adobe Illustrator 16.0.0, SVG Export Plug-In . SVG Version: 6.00 Build 0)  -->
<!DOCTYPE svg PUBLIC "-//W3C//DTD SVG 1.1//EN" "http://www.w3.org/Graphics/SVG/1.1/DTD/svg11.dtd">
<svg version="1.1" xmlns="http://www.w3.org/2000/svg" xmlns:xlink="http://www.w3.org/1999/xlink" x="0px" y="0px"
	 width="39.312px" height="32.793px" viewBox="0 0 39.312 32.793" enable-background="new 0 0 39.312 32.793" xml:space="preserve">
<g id="Layer_3">
</g>
<g id="line">
	<path fill="#848484" d="M19.088,0c-0.623,0-1.305,0.318-1.975,0.921l-7.578,6.82C9.178,8.062,8.822,8.472,8.473,8.96h-5.58
		C1.297,8.96,0,10.261,0,11.859v9.076c0,1.594,1.297,2.891,2.893,2.891h5.578c0.346,0.491,0.703,0.903,1.064,1.226l7.578,6.823
		c0.67,0.602,1.352,0.919,1.973,0.919c0.6,0,1.115-0.288,1.453-0.811c0.295-0.457,0.445-1.072,0.445-1.83V2.642
		C20.984,0.693,20.004,0,19.088,0z M19.658,30.153c0,0.653-0.146,0.977-0.232,1.111c-0.117,0.18-0.236,0.205-0.34,0.205
		c-0.133,0-0.504-0.057-1.086-0.581l-7.58-6.823c-0.348-0.311-0.699-0.736-1.045-1.265c-0.123-0.188-0.33-0.3-0.555-0.3H2.893
		c-0.865,0-1.568-0.702-1.568-1.565v-9.076c0-0.868,0.703-1.574,1.568-1.574H8.82c0.223,0,0.43-0.111,0.553-0.296
		c0.352-0.529,0.705-0.954,1.049-1.265L18,1.906c0.582-0.525,0.955-0.581,1.088-0.581c0.543,0,0.57,1.096,0.57,1.316V30.153z
		 M31.234,7.135c3.416,5.714,3.416,12.812,0,18.524c-0.123,0.208-0.344,0.322-0.568,0.322c-0.115,0-0.234-0.03-0.34-0.094
		c-0.314-0.188-0.416-0.595-0.229-0.909c3.166-5.292,3.166-11.869,0-17.163C29.91,7.5,30.012,7.094,30.326,6.906
		C30.639,6.718,31.047,6.82,31.234,7.135z M26.291,9.675c2.479,4.148,2.479,9.3,0,13.444c-0.123,0.207-0.344,0.322-0.568,0.322
		c-0.115,0-0.232-0.03-0.34-0.095c-0.314-0.188-0.416-0.594-0.229-0.908c2.229-3.725,2.229-8.355,0-12.083
		c-0.188-0.314-0.086-0.721,0.229-0.909C25.697,9.259,26.104,9.361,26.291,9.675z M35.033,30.997
		c-0.129,0.196-0.34,0.304-0.559,0.304c-0.123,0-0.248-0.033-0.357-0.104c-0.309-0.198-0.398-0.608-0.199-0.916
		c5.426-8.434,5.426-19.332,0-27.765c-0.199-0.308-0.109-0.718,0.199-0.916c0.307-0.196,0.717-0.108,0.916,0.199
		C40.738,10.667,40.738,22.127,35.033,30.997z"/>
</g>
</svg>
