<?xml version="1.0" encoding="utf-8"?>
<!-- Generator: Adobe Illustrator 16.0.0, SVG Export Plug-In . SVG Version: 6.00 Build 0)  -->
<!DOCTYPE svg PUBLIC "-//W3C//DTD SVG 1.1//EN" "http://www.w3.org/Graphics/SVG/1.1/DTD/svg11.dtd">
<svg version="1.1" id="Layer_1" xmlns="http://www.w3.org/2000/svg" xmlns:xlink="http://www.w3.org/1999/xlink" x="0px" y="0px"
	 width="8px" height="4.965px" viewBox="0 0 8 4.965" enable-background="new 0 0 8 4.965" xml:space="preserve">
<g>
	<path d="M7.608,4.182H0.392C0.175,4.182,0,4.356,0,4.573s0.175,0.393,0.392,0.393h7.216C7.824,4.965,8,4.79,8,4.573
		S7.824,4.182,7.608,4.182z"/>
	<path d="M0.392,0.784h7.216C7.824,0.784,8,0.608,8,0.392C8,0.175,7.824,0,7.608,0H0.392C0.175,0,0,0.175,0,0.392
		C0,0.608,0.175,0.784,0.392,0.784z"/>
	<path d="M7.608,2.09H0.392C0.175,2.09,0,2.266,0,2.483s0.175,0.393,0.392,0.393h7.216C7.824,2.875,8,2.7,8,2.483
		S7.824,2.09,7.608,2.09z"/>
</g>
</svg>
