<?xml version="1.0" encoding="utf-8"?>
<!-- Generator: Adobe Illustrator 16.0.0, SVG Export Plug-In . SVG Version: 6.00 Build 0)  -->
<!DOCTYPE svg PUBLIC "-//W3C//DTD SVG 1.1//EN" "http://www.w3.org/Graphics/SVG/1.1/DTD/svg11.dtd">
<svg version="1.1" id="Layer_1" xmlns="http://www.w3.org/2000/svg" xmlns:xlink="http://www.w3.org/1999/xlink" x="0px" y="0px"
	 width="50px" height="50px" viewBox="0 0 50 50" enable-background="new 0 0 50 50" xml:space="preserve">
<path display="none" fill="#EC008C" d="M33.01,23.533h-1.162c-0.131,0-0.293-0.12-0.342-0.277l-0.684-1.658
	c-0.061-0.112-0.033-0.312,0.059-0.403l0.82-0.82c0.15-0.15,0.234-0.352,0.234-0.565c0-0.215-0.084-0.415-0.234-0.565l-0.945-0.948
	c-0.301-0.297-0.826-0.299-1.129,0.002l-0.82,0.822c-0.09,0.088-0.244,0.144-0.438,0.043l-1.658-0.68
	c-0.125-0.037-0.242-0.197-0.242-0.331v-1.162c0-0.441-0.359-0.801-0.803-0.801h-1.334c-0.44,0-0.799,0.359-0.799,0.801v1.162
	c0,0.13-0.122,0.294-0.277,0.342l-1.657,0.685c-0.107,0.06-0.316,0.029-0.403-0.058l-0.823-0.823
	c-0.301-0.299-0.827-0.3-1.129,0.001l-0.946,0.944c-0.15,0.151-0.234,0.352-0.234,0.566c0,0.214,0.084,0.415,0.234,0.565
	l0.822,0.821c0.091,0.091,0.12,0.29,0.043,0.435l-0.679,1.656c-0.038,0.124-0.2,0.247-0.33,0.247H16.99c-0.441,0-0.8,0.359-0.8,0.8
	v1.335c0,0.441,0.358,0.801,0.8,0.801h1.163c0.13,0,0.292,0.122,0.341,0.275l0.684,1.657c0.062,0.115,0.034,0.312-0.059,0.404
	l-0.821,0.82c-0.151,0.15-0.235,0.353-0.235,0.567s0.084,0.416,0.234,0.564l0.946,0.948c0.304,0.297,0.828,0.297,1.13-0.004
	l0.822-0.822c0.087-0.087,0.241-0.142,0.436-0.041l1.655,0.679c0.125,0.037,0.247,0.201,0.247,0.331v1.162
	c0,0.441,0.358,0.801,0.799,0.801h1.334c0.444,0,0.803-0.359,0.803-0.801v-1.162c0-0.133,0.117-0.294,0.273-0.342l1.658-0.683
	c0.107-0.061,0.318-0.03,0.404,0.056l0.822,0.824c0.301,0.301,0.83,0.301,1.131,0l0.941-0.944c0.152-0.15,0.236-0.352,0.236-0.566
	s-0.084-0.417-0.234-0.567l-0.822-0.819c-0.09-0.091-0.117-0.292-0.041-0.437l0.68-1.656c0.037-0.126,0.199-0.245,0.33-0.245h1.162
	c0.441,0,0.801-0.359,0.801-0.801v-1.335C33.811,23.893,33.451,23.533,33.01,23.533z M33.188,25.668
	c0,0.097-0.082,0.178-0.178,0.178h-1.162c-0.404,0-0.812,0.304-0.916,0.662l-0.654,1.594c-0.193,0.354-0.123,0.856,0.16,1.145
	l0.824,0.821c0.045,0.044,0.051,0.098,0.051,0.126c0,0.027-0.006,0.08-0.051,0.125l-0.943,0.945
	c-0.09,0.089-0.164,0.089-0.252,0.001l-0.822-0.825c-0.172-0.173-0.424-0.272-0.693-0.272c-0.162,0-0.318,0.039-0.418,0.097
	l-1.598,0.657c-0.387,0.114-0.689,0.521-0.689,0.928v1.162c0,0.097-0.082,0.179-0.181,0.179h-1.334c-0.097,0-0.176-0.08-0.176-0.179
	v-1.162c0-0.405-0.305-0.812-0.663-0.917l-1.595-0.653c-0.132-0.072-0.288-0.111-0.45-0.111c-0.268,0-0.52,0.1-0.693,0.273
	l-0.821,0.821c-0.066,0.066-0.188,0.063-0.252,0.003l-0.945-0.947c-0.045-0.044-0.051-0.097-0.051-0.124
	c0-0.028,0.006-0.082,0.053-0.127l0.82-0.82c0.286-0.286,0.358-0.788,0.179-1.112l-0.657-1.598c-0.115-0.387-0.523-0.69-0.927-0.69
	H16.99c-0.097,0-0.178-0.081-0.178-0.178v-1.335c0-0.096,0.081-0.178,0.178-0.178h1.163c0.403,0,0.812-0.304,0.915-0.662
	l0.654-1.595c0.195-0.356,0.123-0.858-0.164-1.144l-0.822-0.822c-0.033-0.033-0.051-0.077-0.051-0.124
	c0-0.048,0.018-0.092,0.053-0.125l0.944-0.945c0.067-0.066,0.186-0.064,0.251,0l0.821,0.822c0.175,0.174,0.427,0.273,0.694,0.273
	c0.163,0,0.318-0.038,0.418-0.096l1.596-0.659c0.389-0.115,0.693-0.522,0.693-0.928v-1.162c0-0.098,0.079-0.179,0.176-0.179h1.334
	c0.099,0,0.181,0.082,0.181,0.179v1.162c0,0.406,0.302,0.813,0.66,0.917l1.594,0.654c0.348,0.191,0.865,0.118,1.146-0.163
	l0.818-0.822c0.068-0.065,0.189-0.063,0.252-0.002l0.945,0.948c0.033,0.033,0.051,0.077,0.051,0.125
	c0,0.047-0.018,0.091-0.051,0.125l-0.82,0.82c-0.287,0.287-0.359,0.789-0.18,1.112l0.658,1.597c0.115,0.389,0.523,0.692,0.928,0.692
	h1.162c0.096,0,0.178,0.082,0.178,0.178V25.668z M25,22.563c-1.343,0-2.436,1.094-2.436,2.437c0,1.344,1.093,2.437,2.436,2.437
	c1.344,0,2.436-1.093,2.436-2.437C27.436,23.657,26.344,22.563,25,22.563z M25,26.813c-1,0-1.813-0.812-1.813-1.813
	c0-1,0.813-1.813,1.813-1.813S26.812,24,26.812,25C26.812,26.001,26,26.813,25,26.813z"/>
<path display="none" fill="#EC008C" d="M24.363,24.314c0,0.172-0.14,0.312-0.312,0.312h-5.669c-0.172,0-0.311-0.14-0.311-0.312
	s0.139-0.312,0.311-0.312h5.669C24.224,24.003,24.363,24.143,24.363,24.314z M18.382,26.809h5.669c0.173,0,0.312-0.14,0.312-0.311
	c0-0.173-0.14-0.312-0.312-0.312h-5.669c-0.172,0-0.311,0.139-0.311,0.312C18.071,26.669,18.21,26.809,18.382,26.809z
	 M18.382,28.991h5.669c0.173,0,0.312-0.14,0.312-0.312s-0.14-0.312-0.312-0.312h-5.669c-0.172,0-0.311,0.14-0.311,0.312
	S18.21,28.991,18.382,28.991z M18.382,31.174h9.066c0.172,0,0.312-0.14,0.312-0.311c0-0.172-0.14-0.312-0.312-0.312h-9.066
	c-0.172,0-0.311,0.14-0.311,0.312C18.071,31.034,18.21,31.174,18.382,31.174z M33.023,21.382l-0.569,0.811l-3.672,5.297
	c-0.037,0.056-0.092,0.096-0.153,0.118l-3.559,1.225c-0.033,0.011-0.067,0.017-0.102,0.017c-0.066,0-0.132-0.021-0.188-0.062
	c-0.082-0.062-0.129-0.163-0.123-0.266l0.195-3.585c0.003-0.056,0.021-0.108,0.051-0.154c0,0,0.032-0.05,0.086-0.126l3.724-5.435
	c0.134-0.183,0.256-0.34,0.332-0.438c0.032-0.042,0.055-0.069,0.064-0.084c0.229-0.336,0.539-0.507,0.921-0.507
	c0.442,0,0.977,0.229,1.729,0.743C32.771,19.63,33.701,20.39,33.023,21.382z M29.538,19.165c-0.003,0.004-0.009,0.011-0.013,0.015
	c0.484,0.128,1.039,0.392,1.576,0.761c0.558,0.382,1.017,0.818,1.309,1.23l0.099-0.141c0.218-0.318,0.275-0.637-1.101-1.581
	c-0.624-0.427-1.076-0.634-1.377-0.634c-0.173,0-0.294,0.07-0.407,0.235C29.616,19.062,29.585,19.104,29.538,19.165z M27.967,27.177
	c-0.318-0.274-0.642-0.324-0.646-0.325c-0.115-0.013-0.213-0.088-0.255-0.195c-0.186-0.475-0.764-0.597-0.77-0.598
	c-0.108-0.02-0.197-0.096-0.234-0.2c-0.091-0.253-0.367-0.448-0.605-0.559l-0.098,1.794l0.926,0.662L27.967,27.177z M25.306,28.093
	l0.257-0.089l-0.243-0.174L25.306,28.093z M32.027,21.725c-0.215-0.39-0.696-0.871-1.278-1.271c-0.572-0.392-1.19-0.663-1.634-0.725
	l-0.089,0.123l-3.331,4.875c0.267,0.12,0.67,0.355,0.884,0.765c0.254,0.083,0.731,0.295,0.993,0.78
	c0.215,0.059,0.585,0.205,0.921,0.544L32.027,21.725z M16.769,21.725c-0.049-0.115-0.021-0.249,0.066-0.339l4.469-4.535
	c0.089-0.089,0.224-0.116,0.34-0.069c0.117,0.049,0.193,0.162,0.193,0.288v3.22c0,0.896-0.73,1.627-1.627,1.627h-3.154
	C16.931,21.916,16.817,21.841,16.769,21.725z M17.8,21.294h2.41c0.554,0,1.004-0.451,1.004-1.005v-2.46L17.8,21.294z M22.294,17.381
	h5.149c0.6,0,1.085,0.472,1.104,1.074c0.005,0.168,0.144,0.301,0.311,0.301c0.003,0,0.007,0,0.011,0
	c0.171-0.005,0.307-0.148,0.301-0.32c-0.029-0.94-0.787-1.678-1.726-1.678h-5.149c-0.171,0-0.311,0.14-0.311,0.312
	S22.123,17.381,22.294,17.381z M28.858,27.531c-0.171,0-0.311,0.139-0.311,0.311v3.672c0,0.609-0.496,1.106-1.104,1.106h-8.97
	c-0.609,0-1.106-0.497-1.106-1.106v-9.138c0-0.172-0.14-0.312-0.312-0.312c-0.171,0-0.311,0.14-0.311,0.312v9.138
	c0,0.953,0.775,1.729,1.729,1.729h8.97c0.952,0,1.727-0.775,1.727-1.729v-3.672C29.17,27.67,29.03,27.531,28.858,27.531z"/>
<path display="none" fill="#EC008C" d="M32.326,23.699c0.002-0.053,0.004-0.105,0.004-0.159c0-2.695-2.193-4.888-4.889-4.888
	c-1.631,0-3.157,0.824-4.06,2.17c-0.614-0.413-1.345-0.638-2.087-0.638c-1.991,0-3.623,1.566-3.727,3.563
	c-1.36,0.644-2.229,2.044-2.229,3.623c0,2.193,1.699,3.977,3.787,3.977h11.749c2.088,0,3.785-1.783,3.785-3.977
	C34.66,25.757,33.732,24.31,32.326,23.699z M30.875,30.725H19.126c-1.744,0-3.164-1.505-3.164-3.354c0-1.376,0.814-2.634,2.027-3.13
	c0.118-0.048,0.193-0.196,0.193-0.322c0-1.717,1.396-3.112,3.111-3.112c0.717,0,1.418,0.252,1.975,0.708
	c0.072,0.058,0.165,0.083,0.255,0.064c0.09-0.016,0.168-0.071,0.214-0.151c0.76-1.328,2.178-2.152,3.704-2.152
	c2.354,0,4.266,1.912,4.266,4.265c0,0.115-0.006,0.228-0.014,0.34c-0.012,0.14,0.072,0.27,0.203,0.317
	c1.281,0.463,2.143,1.738,2.143,3.174C34.039,29.22,32.619,30.725,30.875,30.725z"/>
<path display="none" fill="#EC008C" d="M33.088,15.979H22.572c-0.413,0-0.724,0.24-0.724,0.558v4.349
	c0,0.045,0.008,0.088,0.019,0.129v9.535c-0.56-0.588-1.501-0.975-2.568-0.975c-1.715,0-3.11,0.998-3.11,2.223
	c0,1.227,1.396,2.225,3.11,2.225c1.635,0,2.976-0.908,3.096-2.057c0.059-0.057,0.096-0.135,0.096-0.223V21.437
	c0.027,0.001,0.054,0.006,0.082,0.006h10.516c0.034,0,0.067-0.005,0.101-0.008v6.819c-0.562-0.576-1.494-0.955-2.549-0.955
	c-1.714,0-3.108,0.998-3.108,2.225s1.395,2.225,3.108,2.225c1.466,0,2.694-0.73,3.021-1.709c0.088-0.055,0.15-0.148,0.15-0.26
	v-8.894v-0.25v-4.099C33.812,16.219,33.5,15.979,33.088,15.979z M19.299,33.398c-1.349,0-2.487-0.732-2.487-1.602
	c0-0.867,1.139-1.6,2.487-1.6c1.347,0,2.485,0.732,2.485,1.6C21.784,32.666,20.646,33.398,19.299,33.398z M33.088,20.82H22.572
	c-0.036,0-0.06-0.006-0.082-0.012v-0.173c0-0.034-0.009-0.066-0.02-0.097v-3.922c0.023-0.008,0.058-0.015,0.102-0.015h10.516
	c0.044,0,0.078,0.007,0.101,0.015v4.019v0.17C33.166,20.813,33.132,20.82,33.088,20.82z M30.64,31.125
	c-1.347,0-2.485-0.732-2.485-1.602c0-0.867,1.139-1.602,2.485-1.602c1.348,0,2.486,0.734,2.486,1.602
	C33.126,30.393,31.987,31.125,30.64,31.125z"/>
<path display="none" fill="#EC008C" d="M29.75,23.958l-5.325,7.291c-0.123,0.15-0.279,0.234-0.455,0.248
	c-0.016,0.002-0.033,0.002-0.049,0.002c-0.157,0-0.307-0.059-0.426-0.166l-3.186-2.896c-0.126-0.115-0.137-0.311-0.021-0.439
	c0.116-0.127,0.313-0.137,0.44-0.02l3.184,2.895l5.334-7.281c0.002-0.003,0.002-0.006,0.004-0.008
	c0.09-0.146,0.283-0.192,0.43-0.102c0.135,0.083,0.184,0.252,0.119,0.393C29.789,23.904,29.77,23.933,29.75,23.958z M32.326,23.549
	c0.002-0.053,0.002-0.105,0.002-0.159c0-2.695-2.191-4.888-4.887-4.888c-1.632,0-3.157,0.823-4.061,2.17
	c-0.613-0.413-1.344-0.638-2.087-0.638c-1.991,0-3.624,1.566-3.728,3.562c-1.359,0.644-2.227,2.044-2.227,3.624
	c0,2.193,1.699,3.977,3.787,3.977h2.497c0.171,0,0.312-0.139,0.312-0.311s-0.141-0.312-0.312-0.312h-2.497
	c-1.746,0-3.164-1.504-3.164-3.354c0-1.376,0.814-2.634,2.027-3.129c0.117-0.048,0.192-0.196,0.192-0.323
	c0-1.716,1.396-3.111,3.111-3.111c0.72,0,1.42,0.252,1.976,0.708c0.07,0.059,0.163,0.082,0.254,0.065
	c0.09-0.017,0.168-0.072,0.213-0.151c0.76-1.328,2.18-2.154,3.706-2.154c2.352,0,4.266,1.914,4.266,4.266
	c0,0.115-0.006,0.228-0.016,0.34c-0.012,0.14,0.072,0.27,0.205,0.317c1.281,0.463,2.143,1.738,2.143,3.173
	c0,1.85-1.42,3.354-3.164,3.354h-4.879c-0.173,0-0.312,0.141-0.312,0.312s0.14,0.311,0.312,0.311h4.879
	c2.088,0,3.785-1.783,3.785-3.977C34.66,25.607,33.732,24.161,32.326,23.549z"/>
<path display="none" fill="#EC008C" d="M24.401,22.744c0.049,0.165-0.046,0.338-0.211,0.387c-1.205,0.355-2.046,1.481-2.046,2.738
	c0,0.791,0.321,1.52,0.87,2.049c0.011-0.121,0.09-0.229,0.211-0.268l0.15-0.051c0.161-0.053,0.338,0.035,0.393,0.197l0.295,0.893
	c0.027,0.082,0.02,0.172-0.021,0.248c-0.041,0.074-0.113,0.131-0.197,0.152l-0.91,0.23c-0.025,0.006-0.052,0.008-0.077,0.008
	c-0.139,0-0.265-0.092-0.302-0.232l-0.039-0.152c-0.042-0.166,0.059-0.336,0.225-0.379c0.021-0.006,0.041-0.006,0.061-0.008
	c-0.801-0.65-1.279-1.621-1.279-2.688c0-1.531,1.025-2.902,2.492-3.335C24.179,22.485,24.353,22.58,24.401,22.744z M27.198,23.182
	c0.021-0.001,0.041-0.002,0.061-0.008c0.166-0.042,0.267-0.212,0.225-0.379l-0.039-0.151c-0.043-0.167-0.211-0.266-0.377-0.224
	l-0.912,0.23c-0.083,0.021-0.154,0.076-0.195,0.152c-0.042,0.076-0.051,0.166-0.022,0.247l0.296,0.891
	c0.043,0.131,0.164,0.213,0.295,0.213c0.033,0,0.066-0.005,0.098-0.016l0.148-0.049c0.121-0.04,0.201-0.148,0.213-0.268
	c0.547,0.528,0.869,1.256,0.869,2.047c0,1.119-0.66,2.141-1.68,2.604c-0.156,0.07-0.227,0.254-0.156,0.41
	c0.053,0.115,0.166,0.184,0.285,0.184c0.042,0,0.086-0.01,0.128-0.027c1.242-0.562,2.045-1.807,2.045-3.17
	C28.479,24.803,27.999,23.833,27.198,23.182z M34.661,27.371c0,2.193-1.699,3.977-3.786,3.977H19.127
	c-2.089,0-3.788-1.783-3.788-3.977c0-1.58,0.869-2.979,2.229-3.623c0.104-1.997,1.735-3.563,3.727-3.563
	c0.745,0,1.474,0.225,2.088,0.638c0.902-1.347,2.428-2.17,4.061-2.17c2.695,0,4.889,2.193,4.889,4.888
	c0,0.053-0.002,0.106-0.004,0.159C33.732,24.312,34.661,25.757,34.661,27.371z M34.038,27.371c0-1.435-0.859-2.71-2.141-3.173
	c-0.133-0.048-0.216-0.178-0.205-0.318c0.01-0.112,0.016-0.224,0.016-0.339c0-2.352-1.914-4.265-4.266-4.265
	c-1.526,0-2.945,0.825-3.704,2.153c-0.045,0.08-0.123,0.135-0.214,0.152c-0.09,0.017-0.184-0.008-0.254-0.065
	c-0.556-0.457-1.258-0.708-1.977-0.708c-1.716,0-3.111,1.396-3.111,3.111c0,0.127-0.075,0.275-0.191,0.323
	c-1.213,0.496-2.029,1.754-2.029,3.129c0,1.85,1.42,3.354,3.165,3.354h11.748C32.62,30.725,34.038,29.221,34.038,27.371z"/>
<path fill="#EC008C" d="M37.564,24.753c-0.354,0-0.645,0.288-0.645,0.644v14.219c0,1.563-1.27,2.834-2.832,2.834h-5.007v-9.868
	c0-0.354-0.288-0.643-0.646-0.643h-7.033c-0.358,0-0.647,0.288-0.647,0.643v9.868h-5.005c-1.563,0-2.834-1.271-2.834-2.834V25.397
	c0-0.356-0.29-0.644-0.646-0.644c-0.354,0-0.643,0.288-0.643,0.644v14.219c0,2.275,1.848,4.125,4.123,4.125h18.339
	c2.271,0,4.123-1.85,4.123-4.125V25.397C38.211,25.041,37.922,24.753,37.564,24.753z M22.045,33.229h5.747v9.222h-5.747V33.229z
	 M43.933,19.983l-4.657-3.359c-0.609-0.44-1.144-1.483-1.144-2.232V8.87c0-1.313-1.068-2.381-2.382-2.381h-1.633
	c-1.315,0-2.382,1.068-2.382,2.381v1.836c0,0.235-0.055,0.342-0.062,0.35c-0.018,0-0.13-0.007-0.33-0.151L26.529,7.43
	c-0.584-0.425-1.056-0.766-1.157-0.843c-0.125-0.108-0.297-0.179-0.455-0.175c-0.15-0.009-0.326,0.065-0.448,0.173
	c-0.114,0.086-0.696,0.509-1.381,1.006L5.905,19.983c-0.516,0.372-0.855,0.925-0.957,1.556c-0.099,0.629,0.048,1.258,0.418,1.77
	l0.654,0.909c0.44,0.612,1.142,0.963,1.927,0.963l0,0c0.083,0,0.167-0.004,0.249-0.012c0.113-0.012,0.222-0.052,0.315-0.119
	l16.407-11.837l16.41,11.837c0.092,0.067,0.202,0.107,0.314,0.119c0.081,0.008,0.167,0.012,0.249,0.012
	c0.787,0,1.488-0.353,1.92-0.962l0.659-0.909C45.237,22.244,44.996,20.751,43.933,19.983z M43.425,22.556l-0.659,0.913
	c-0.188,0.261-0.489,0.414-0.842,0.423L25.3,11.899V11.9c-0.217-0.157-0.55-0.163-0.775,0.007L7.915,23.892
	c-0.352-0.009-0.657-0.163-0.845-0.426l-0.657-0.911c-0.17-0.235-0.236-0.523-0.192-0.812c0.047-0.291,0.202-0.544,0.439-0.714
	L23.843,8.636c0.507-0.367,0.845-0.613,1.075-0.785c0.196,0.144,0.471,0.342,0.855,0.622l4.818,3.478
	c0.362,0.262,0.728,0.395,1.082,0.395c0.673,0,1.348-0.507,1.348-1.639V8.87c0-0.603,0.492-1.093,1.096-1.093h1.633
	c0.6,0,1.093,0.49,1.093,1.093v5.522c0,1.157,0.736,2.596,1.676,3.278l4.661,3.359C43.667,21.381,43.779,22.066,43.425,22.556z"/>
</svg>
