<?xml version="1.0" encoding="utf-8"?>
<!-- Generator: Adobe Illustrator 16.0.0, SVG Export Plug-In . SVG Version: 6.00 Build 0)  -->
<!DOCTYPE svg PUBLIC "-//W3C//DTD SVG 1.1//EN" "http://www.w3.org/Graphics/SVG/1.1/DTD/svg11.dtd">
<svg version="1.1" id="Layer_1" xmlns="http://www.w3.org/2000/svg" xmlns:xlink="http://www.w3.org/1999/xlink" x="0px" y="0px"
	 width="50px" height="50px" viewBox="0 0 50 50" enable-background="new 0 0 50 50" xml:space="preserve">
<path display="none" fill="#EC008C" d="M33.01,23.533h-1.162c-0.131,0-0.293-0.12-0.342-0.277l-0.684-1.658
	c-0.061-0.112-0.033-0.312,0.059-0.403l0.82-0.82c0.15-0.15,0.234-0.352,0.234-0.565c0-0.215-0.084-0.415-0.234-0.565l-0.945-0.948
	c-0.301-0.297-0.826-0.299-1.129,0.002l-0.82,0.822c-0.09,0.088-0.244,0.144-0.438,0.043l-1.658-0.68
	c-0.125-0.037-0.242-0.197-0.242-0.331v-1.162c0-0.441-0.359-0.801-0.803-0.801h-1.334c-0.44,0-0.799,0.359-0.799,0.801v1.162
	c0,0.13-0.122,0.294-0.277,0.342l-1.657,0.685c-0.107,0.06-0.316,0.029-0.403-0.058l-0.823-0.823
	c-0.301-0.299-0.827-0.3-1.129,0.001l-0.946,0.944c-0.15,0.151-0.234,0.352-0.234,0.566c0,0.214,0.084,0.415,0.234,0.565
	l0.822,0.821c0.091,0.091,0.12,0.29,0.043,0.435l-0.679,1.656c-0.038,0.124-0.2,0.247-0.33,0.247H16.99c-0.441,0-0.8,0.359-0.8,0.8
	v1.335c0,0.441,0.358,0.801,0.8,0.801h1.163c0.13,0,0.292,0.122,0.341,0.275l0.684,1.657c0.062,0.115,0.034,0.312-0.059,0.404
	l-0.821,0.82c-0.151,0.15-0.235,0.353-0.235,0.567s0.084,0.416,0.234,0.564l0.946,0.948c0.304,0.297,0.828,0.297,1.13-0.004
	l0.822-0.822c0.087-0.087,0.241-0.142,0.436-0.041l1.655,0.679c0.125,0.037,0.247,0.201,0.247,0.331v1.162
	c0,0.441,0.358,0.801,0.799,0.801h1.334c0.444,0,0.803-0.359,0.803-0.801v-1.162c0-0.133,0.117-0.294,0.273-0.342l1.658-0.683
	c0.107-0.061,0.318-0.03,0.404,0.056l0.822,0.824c0.301,0.301,0.83,0.301,1.131,0l0.941-0.944c0.152-0.15,0.236-0.352,0.236-0.566
	s-0.084-0.417-0.234-0.567l-0.822-0.819c-0.09-0.091-0.117-0.292-0.041-0.437l0.68-1.656c0.037-0.126,0.199-0.245,0.33-0.245h1.162
	c0.441,0,0.801-0.359,0.801-0.801v-1.335C33.811,23.893,33.451,23.533,33.01,23.533z M33.188,25.668
	c0,0.097-0.082,0.178-0.178,0.178h-1.162c-0.404,0-0.812,0.304-0.916,0.662l-0.654,1.594c-0.193,0.354-0.123,0.856,0.16,1.145
	l0.824,0.821c0.045,0.044,0.051,0.098,0.051,0.126c0,0.027-0.006,0.08-0.051,0.125l-0.943,0.945
	c-0.09,0.089-0.164,0.089-0.252,0.001l-0.822-0.825c-0.172-0.173-0.424-0.272-0.693-0.272c-0.162,0-0.318,0.039-0.418,0.097
	l-1.598,0.657c-0.387,0.114-0.689,0.521-0.689,0.928v1.162c0,0.097-0.082,0.179-0.181,0.179h-1.334c-0.097,0-0.176-0.08-0.176-0.179
	v-1.162c0-0.405-0.305-0.812-0.663-0.917l-1.595-0.653c-0.132-0.072-0.288-0.111-0.45-0.111c-0.268,0-0.52,0.1-0.693,0.273
	l-0.821,0.821c-0.066,0.066-0.188,0.063-0.252,0.003l-0.945-0.947c-0.045-0.044-0.051-0.097-0.051-0.124
	c0-0.028,0.006-0.082,0.053-0.127l0.82-0.82c0.286-0.286,0.358-0.788,0.179-1.112l-0.657-1.598c-0.115-0.387-0.523-0.69-0.927-0.69
	H16.99c-0.097,0-0.178-0.081-0.178-0.178v-1.335c0-0.096,0.081-0.178,0.178-0.178h1.163c0.403,0,0.812-0.304,0.915-0.662
	l0.654-1.595c0.195-0.356,0.123-0.858-0.164-1.144l-0.822-0.822c-0.033-0.033-0.051-0.077-0.051-0.124
	c0-0.048,0.018-0.092,0.053-0.125l0.944-0.945c0.067-0.066,0.186-0.064,0.251,0l0.821,0.822c0.175,0.174,0.427,0.273,0.694,0.273
	c0.163,0,0.318-0.038,0.418-0.096l1.596-0.659c0.389-0.115,0.693-0.522,0.693-0.928v-1.162c0-0.098,0.079-0.179,0.176-0.179h1.334
	c0.099,0,0.181,0.082,0.181,0.179v1.162c0,0.406,0.302,0.813,0.66,0.917l1.594,0.654c0.348,0.191,0.865,0.118,1.146-0.163
	l0.818-0.822c0.068-0.065,0.189-0.063,0.252-0.002l0.945,0.948c0.033,0.033,0.051,0.077,0.051,0.125
	c0,0.047-0.018,0.091-0.051,0.125l-0.82,0.82c-0.287,0.287-0.359,0.789-0.18,1.112l0.658,1.597c0.115,0.389,0.523,0.692,0.928,0.692
	h1.162c0.096,0,0.178,0.082,0.178,0.178V25.668z M25,22.563c-1.343,0-2.436,1.094-2.436,2.437c0,1.344,1.093,2.437,2.436,2.437
	c1.344,0,2.436-1.093,2.436-2.437C27.436,23.657,26.344,22.563,25,22.563z M25,26.813c-1,0-1.813-0.812-1.813-1.813
	c0-1,0.813-1.813,1.813-1.813S26.812,24,26.812,25C26.812,26.001,26,26.813,25,26.813z"/>
<path fill="#EC008C" d="M23.456,23.336c0,0.417-0.339,0.756-0.758,0.756H8.941c-0.417,0-0.754-0.339-0.754-0.756
	s0.336-0.756,0.754-0.756h13.756C23.117,22.581,23.456,22.919,23.456,23.336z M8.941,29.389h13.756c0.419,0,0.758-0.339,0.758-0.754
	c0-0.419-0.339-0.756-0.758-0.756H8.941c-0.417,0-0.754,0.337-0.754,0.756C8.188,29.05,8.524,29.389,8.941,29.389z M8.941,34.685
	h13.756c0.419,0,0.758-0.339,0.758-0.756s-0.339-0.756-0.758-0.756H8.941c-0.417,0-0.754,0.339-0.754,0.756
	S8.524,34.685,8.941,34.685z M8.941,39.981h22c0.417,0,0.756-0.339,0.756-0.754c0-0.417-0.339-0.756-0.756-0.756h-22
	c-0.417,0-0.754,0.339-0.754,0.756C8.188,39.643,8.524,39.981,8.941,39.981z M44.47,16.22l-1.382,1.967l-8.91,12.853
	c-0.09,0.136-0.223,0.232-0.372,0.287l-8.635,2.972c-0.081,0.025-0.164,0.04-0.246,0.04c-0.161,0-0.32-0.052-0.455-0.151
	c-0.199-0.152-0.313-0.396-0.299-0.645l0.474-8.699c0.007-0.135,0.05-0.263,0.123-0.375c0,0,0.078-0.121,0.208-0.306l9.036-13.188
	c0.324-0.443,0.62-0.824,0.806-1.062c0.078-0.102,0.132-0.168,0.156-0.204c0.557-0.815,1.308-1.23,2.234-1.23
	c1.073,0,2.369,0.557,4.194,1.803C43.855,11.969,46.114,13.813,44.47,16.22z M36.013,10.841c-0.008,0.009-0.021,0.026-0.031,0.036
	c1.176,0.31,2.521,0.95,3.824,1.846c1.354,0.927,2.467,1.986,3.176,2.986l0.239-0.341c0.528-0.772,0.668-1.545-2.671-3.836
	c-1.514-1.036-2.611-1.538-3.341-1.538c-0.42,0-0.713,0.171-0.988,0.571C36.202,10.592,36.126,10.692,36.013,10.841z M32.199,30.282
	c-0.772-0.666-1.557-0.787-1.566-0.789c-0.279-0.031-0.517-0.214-0.618-0.475c-0.45-1.151-1.854-1.447-1.867-1.45
	c-0.263-0.047-0.479-0.231-0.569-0.485c-0.22-0.614-0.891-1.088-1.469-1.355l-0.237,4.354l2.247,1.606L32.199,30.282z
	 M25.742,32.505l0.623-0.216l-0.59-0.422L25.742,32.505z M42.053,17.052c-0.521-0.946-1.689-2.114-3.103-3.085
	c-1.388-0.95-2.888-1.609-3.964-1.758l-0.216,0.299l-8.083,11.829c0.647,0.292,1.626,0.863,2.145,1.856
	c0.616,0.201,1.775,0.715,2.41,1.893c0.521,0.143,1.419,0.498,2.234,1.32L42.053,17.052z M5.026,17.052
	c-0.118-0.28-0.052-0.604,0.161-0.822L16.031,5.225c0.216-0.216,0.542-0.282,0.825-0.168c0.284,0.119,0.469,0.394,0.469,0.699v7.813
	c0,2.175-1.772,3.948-3.948,3.948H5.723C5.42,17.517,5.145,17.334,5.026,17.052z M7.529,16.007h5.848
	c1.344,0,2.436-1.095,2.436-2.438V7.6L7.529,16.007z M18.434,6.512H30.93c1.455,0,2.633,1.145,2.678,2.607
	c0.012,0.407,0.348,0.729,0.753,0.729c0.008,0,0.017,0,0.026,0c0.415-0.012,0.744-0.36,0.729-0.777C35.046,6.789,33.207,5,30.93,5
	H18.434c-0.415,0-0.753,0.339-0.753,0.756S18.02,6.512,18.434,6.512z M34.363,31.143c-0.415,0-0.754,0.336-0.754,0.753v8.91
	c0,1.479-1.204,2.685-2.68,2.685H9.164c-1.479,0-2.685-1.206-2.685-2.685V18.633c0-0.417-0.339-0.756-0.756-0.756
	c-0.415,0-0.753,0.339-0.753,0.756v22.173C4.97,43.118,6.851,45,9.164,45H30.93c2.311,0,4.189-1.882,4.189-4.194v-8.91
	C35.119,31.479,34.78,31.143,34.363,31.143z"/>
<path display="none" fill="#EC008C" d="M32.326,23.699c0.002-0.053,0.004-0.105,0.004-0.159c0-2.695-2.193-4.888-4.889-4.888
	c-1.631,0-3.157,0.824-4.06,2.17c-0.614-0.413-1.345-0.638-2.087-0.638c-1.991,0-3.623,1.566-3.727,3.563
	c-1.36,0.644-2.229,2.044-2.229,3.623c0,2.193,1.699,3.977,3.787,3.977h11.749c2.088,0,3.785-1.783,3.785-3.977
	C34.66,25.757,33.732,24.31,32.326,23.699z M30.875,30.725H19.126c-1.744,0-3.164-1.505-3.164-3.354c0-1.376,0.814-2.634,2.027-3.13
	c0.118-0.048,0.193-0.196,0.193-0.322c0-1.717,1.396-3.112,3.111-3.112c0.717,0,1.418,0.252,1.975,0.708
	c0.072,0.058,0.165,0.083,0.255,0.064c0.09-0.016,0.168-0.071,0.214-0.151c0.76-1.328,2.178-2.152,3.704-2.152
	c2.354,0,4.266,1.912,4.266,4.265c0,0.115-0.006,0.228-0.014,0.34c-0.012,0.14,0.072,0.27,0.203,0.317
	c1.281,0.463,2.143,1.738,2.143,3.174C34.039,29.22,32.619,30.725,30.875,30.725z"/>
</svg>
